<?xml version="1.0" encoding="utf-8"?>
<!-- Generator: Adobe Illustrator 28.4.1, SVG Export Plug-In . SVG Version: 6.00 Build 0)  -->
<svg version="1.1" id="Layer_1" xmlns="http://www.w3.org/2000/svg" xmlns:xlink="http://www.w3.org/1999/xlink" x="0px" y="0px"
	 viewBox="10 10 590 500" style="enable-background:new 0 0 612 536.5;" xml:space="preserve">
<style type="text/css">
	.st0{fill:#5CC1A0;}
</style>
<g>
	<rect x="84.6" y="488.8" class="st0" width="72.7" height="47.7"/>
	<path class="st0" d="M85.6,410.1h71.8V302.3C114.7,318.9,90.8,354.8,85.6,410.1z"/>
	<path class="st0" d="M1-42.1v578.6h1.2V434.4c-0.1-18.7,1.4-37.3,4.6-55.7c4.8-26.9,13.3-50.7,25.5-71.4c20-33.9,47.9-59,83.4-75.3
		c22.1-10,45.5-16.9,69.5-20.5c18.1-2.8,36.4-4.1,54.7-4.1v329h14.5v-329h84.4V341l72-133.5h89.4L417.8,361
		c26.5,10.2,46,27.3,58.6,51.5c8.4,16.5,14.1,34.1,16.6,52.3c1.5,10.3,2.3,20.7,2.2,31.2v40.5H613V-42.1H1z"/>
	<path class="st0" d="M401.5,450.8c-2.3-4.6-5.2-8.9-8.6-12.8c-11.3-13.1-28.2-20-50.6-20.7c-1.2,0-2.4-0.1-3.6-0.1v119.2h72V496
		C410.8,478.1,407.7,463,401.5,450.8z"/>
</g>
</svg>
