<svg width="162.402" height="110.401" viewBox="0 0 162.402 110.401" xmlns="http://www.w3.org/2000/svg">
  <g id="svgGroup" stroke-linecap="round" fill-rule="evenodd" font-size="9pt" stroke="#00000000" stroke-width="0.25mm" fill="#2b4e80" style="stroke:#00000000;stroke-width:0.25mm;fill:#408fff">
    <path d="M 78.402 0.001 L 78.402 110.401 L 51.202 110.401 L 51.202 94.401 L 27.202 94.401 L 27.202 110.401 L 0.002 110.401 L 0.002 76.161 A 109.053 109.053 0 0 1 1.515 57.467 Q 3.877 43.905 9.922 33.521 Q 19.842 16.481 37.442 8.241 A 85.515 85.515 0 0 1 60.372 1.361 A 114.614 114.614 0 0 1 78.402 0.001 Z M 27.522 68.001 L 51.202 68.001 L 51.202 31.841 Q 30.082 40.161 27.522 68.001 Z" id="0" vector-effect="non-scaling-stroke" />
    <path d="M 83.202 110.401 L 83.202 0.001 L 110.402 0.001 L 110.402 44.801 L 133.602 0.001 L 162.402 0.001 L 135.842 51.521 Q 148.642 56.641 154.722 68.801 A 57.06 57.06 0 0 1 160.083 86.346 A 73.624 73.624 0 0 1 160.802 96.801 L 160.802 110.401 L 133.602 110.401 L 133.602 96.801 Q 133.602 87.793 130.601 81.661 A 21.611 21.611 0 0 0 127.842 77.361 Q 122.368 70.747 111.55 70.418 A 37.749 37.749 0 0 0 110.402 70.401 L 110.402 110.401 L 83.202 110.401 Z" id="1" vector-effect="non-scaling-stroke" />
  </g>
</svg>